<?xml version="1.0" standalone="no"?>
<!DOCTYPE svg PUBLIC "-//W3C//DTD SVG 20010904//EN"
 "http://www.w3.org/TR/2001/REC-SVG-20010904/DTD/svg10.dtd">
<svg version="1.0" xmlns="http://www.w3.org/2000/svg"
 width="430.000000pt" height="436.000000pt" viewBox="0 0 430.000000 436.000000"
 preserveAspectRatio="xMidYMid meet">

<g transform="translate(0.000000,436.000000) scale(0.100000,-0.100000)"
fill="#000000" stroke="none">
<path d="M1590 2403 c0 -5 -20 -102 -45 -218 -25 -115 -45 -213 -45 -217 0 -5
13 -8 30 -8 19 0 33 7 40 20 l11 21 26 -21 c65 -51 155 2 187 110 20 66 20
101 2 145 -24 58 -82 72 -132 33 -26 -21 -27 -21 -20 -3 4 11 13 48 20 83 l14
62 -44 0 c-24 0 -44 -3 -44 -7z m118 -195 c30 -30 -10 -169 -51 -176 -60 -11
-65 110 -7 168 23 23 41 25 58 8z"/>
<path d="M2564 2400 c-28 -11 -52 -46 -60 -86 -4 -23 -14 -36 -35 -44 -34 -15
-40 -50 -9 -50 11 0 20 -3 20 -8 0 -27 -62 -287 -71 -298 -6 -8 -24 -14 -40
-14 -26 0 -29 -3 -29 -35 l0 -35 48 0 c49 0 84 17 102 50 5 10 23 83 40 162
40 187 36 178 70 178 16 0 30 7 34 16 12 31 6 44 -18 44 -31 0 -36 8 -25 38 6
17 16 22 43 22 28 0 35 4 40 27 5 17 3 29 -6 34 -17 11 -77 10 -104 -1z"/>
<path d="M3362 2213 c-56 -266 -56 -248 -7 -248 l40 0 41 195 c23 107 45 207
48 223 5 26 4 27 -37 27 l-43 0 -42 -197z"/>
<path d="M1015 2376 c-54 -20 -118 -92 -136 -153 -54 -185 44 -300 214 -252
34 9 37 13 37 45 0 35 0 35 -32 27 -48 -12 -104 -9 -122 6 -43 36 -26 168 29
227 32 34 37 36 87 32 29 -2 60 -8 69 -11 11 -6 19 2 31 26 16 34 16 35 -10
47 -43 19 -123 22 -167 6z"/>
<path d="M1960 2268 c-76 -39 -122 -160 -90 -242 17 -46 66 -68 138 -63 69 5
92 18 92 53 0 27 -8 29 -63 13 -31 -8 -43 -7 -63 6 -33 21 -32 55 2 55 90 0
164 48 164 106 0 46 -8 63 -41 79 -40 21 -88 18 -139 -7z m98 -65 c4 -26 -32
-53 -70 -53 -37 0 -36 22 3 55 36 30 63 29 67 -2z"/>
<path d="M2344 2271 c-18 -11 -34 -25 -37 -33 -3 -7 -6 0 -6 15 -1 26 -4 28
-33 25 l-33 -3 -32 -150 c-17 -82 -28 -154 -24 -158 5 -5 24 -7 42 -5 34 3 34
4 50 81 9 42 22 91 29 108 13 31 55 59 88 59 19 0 32 25 32 63 0 23 -36 22
-76 -2z"/>
<path d="M3100 2268 c-76 -39 -122 -160 -90 -242 17 -46 66 -68 138 -63 69 5
92 18 92 53 0 27 -8 29 -63 13 -31 -8 -43 -7 -63 6 -33 21 -32 55 2 55 90 0
164 48 164 106 0 46 -8 63 -41 79 -40 21 -88 18 -139 -7z m98 -65 c4 -26 -32
-53 -70 -53 -37 0 -36 22 3 55 36 30 63 29 67 -2z"/>
<path d="M1220 2261 c0 -11 9 -83 21 -160 19 -132 19 -142 3 -166 -15 -24 -28
-30 -79 -37 -14 -2 -21 -12 -23 -35 -3 -26 1 -32 20 -35 43 -7 91 10 124 44
26 27 224 382 224 402 0 3 -20 6 -43 6 l-44 0 -50 -106 -51 -106 -6 48 c-3 27
-8 75 -12 107 l-6 57 -39 0 c-32 0 -39 -4 -39 -19z"/>
<path d="M2696 2272 c-2 -4 -14 -57 -25 -116 -17 -88 -19 -116 -10 -143 20
-62 86 -72 143 -22 l35 30 -2 -28 c-2 -23 3 -29 22 -31 13 -2 27 0 32 5 7 7
69 278 69 303 0 6 -18 10 -40 10 -35 0 -40 -3 -46 -27 -32 -135 -47 -180 -66
-200 -25 -26 -56 -30 -65 -7 -5 12 13 124 34 212 5 20 2 22 -35 22 -23 0 -43
-3 -46 -8z"/>
</g>
</svg>
